<svg width="320" height="320" viewBox="0 0 320 320" fill="none" xmlns="http://www.w3.org/2000/svg">
  <rect width="320" height="320" fill="transparent" />

  <g opacity="0.32">
    <circle cx="46" cy="52" r="26" fill="#0F2B4D" />
    <rect x="31" y="37" width="30" height="30" rx="8" stroke="#63B4FF" stroke-width="2" />
    <path d="M38 58V45H49V49H42V58H38Z" fill="#DDF1FF" />
    <path d="M51 58V45H55L61 52L67 45H71V58H67V50L62 55H60L55 50V58H51Z" fill="#8FD0FF" />
  </g>

  <g opacity="0.24">
    <circle cx="260" cy="62" r="22" fill="#12385E" />
    <path d="M260 48V76" stroke="#7BC5FF" stroke-width="2.5" stroke-linecap="round" />
    <path d="M268 54C266.6 52.5 264.3 51.7 261.8 51.7H258.8C255.4 51.7 252.7 54 252.7 56.9C252.7 59.5 254.6 61.1 257.3 61.8L262.7 63.2C265.4 63.9 267.3 65.5 267.3 68.1C267.3 71 264.6 73.3 261.2 73.3H258.2C255.7 73.3 253.4 72.5 252 71" stroke="#D9EEFF" stroke-width="2" stroke-linecap="round" />
  </g>

  <g opacity="0.18">
    <text x="114" y="82" fill="#145B9E" font-size="28" font-family="Inter, Arial, sans-serif" font-weight="700">$</text>
    <text x="143" y="112" fill="#2F79BA" font-size="22" font-family="Inter, Arial, sans-serif" font-weight="700">$</text>
    <text x="95" y="124" fill="#0D4D87" font-size="16" font-family="Inter, Arial, sans-serif" font-weight="700">$</text>
  </g>

  <g opacity="0.24">
    <circle cx="86" cy="238" r="23" fill="#12385E" />
    <path d="M86 224V252" stroke="#7BC5FF" stroke-width="2.5" stroke-linecap="round" />
    <path d="M94 230C92.6 228.5 90.3 227.7 87.8 227.7H84.8C81.4 227.7 78.7 230 78.7 232.9C78.7 235.5 80.6 237.1 83.3 237.8L88.7 239.2C91.4 239.9 93.3 241.5 93.3 244.1C93.3 247 90.6 249.3 87.2 249.3H84.2C81.7 249.3 79.4 248.5 78 247" stroke="#D9EEFF" stroke-width="2" stroke-linecap="round" />
  </g>

  <g opacity="0.3">
    <circle cx="248" cy="248" r="30" fill="#0F2B4D" />
    <rect x="229" y="229" width="38" height="38" rx="10" stroke="#63B4FF" stroke-width="2" />
    <path d="M239 256V238H253V243H244V256H239Z" fill="#DDF1FF" />
    <path d="M255 256V238H260L267 246L274 238H279V256H274V246L268 252H266L260 246V256H255Z" fill="#8FD0FF" />
  </g>

  <g opacity="0.17">
    <path d="M16 171C52 144 104 140 147 163C191 186 244 183 304 147" stroke="#3F88CB" stroke-width="2" stroke-linecap="round" stroke-dasharray="4 8" />
    <path d="M14 196C57 167 110 165 156 188C198 209 250 206 304 174" stroke="#4CA3EE" stroke-width="2" stroke-linecap="round" stroke-dasharray="4 8" />
  </g>
</svg>
